<svg xmlns="http://www.w3.org/2000/svg" xmlns:xlink="http://www.w3.org/1999/xlink" width="500" zoomAndPan="magnify" viewBox="0 0 375 374.999991" height="500" preserveAspectRatio="xMidYMid meet" version="1.0"><defs><g/><clipPath id="6859e49d20"><path d="M 15.753906 229 L 359.253906 229 L 359.253906 241.476562 L 15.753906 241.476562 Z M 15.753906 229 " clip-rule="nonzero"/></clipPath></defs><path fill="#f4b106" d="M 146.023438 190.492188 L 133.988281 190.492188 L 133.988281 178.457031 L 146.023438 178.457031 L 146.023438 190.492188 " fill-opacity="1" fill-rule="nonzero"/><path fill="#f4b106" d="M 161.445312 190.492188 L 149.410156 190.492188 L 149.410156 178.457031 L 161.445312 178.457031 L 161.445312 190.492188 " fill-opacity="1" fill-rule="nonzero"/><path fill="#f4b106" d="M 146.023438 205.535156 L 133.988281 205.535156 L 133.988281 193.503906 L 146.023438 193.503906 L 146.023438 205.535156 " fill-opacity="1" fill-rule="nonzero"/><path fill="#f4b106" d="M 161.445312 205.535156 L 149.410156 205.535156 L 149.410156 193.503906 L 161.445312 193.503906 L 161.445312 205.535156 " fill-opacity="1" fill-rule="nonzero"/><g clip-path="url(#6859e49d20)"><path fill="#f4b106" d="M 359.238281 241.066406 L 15.753906 241.066406 L 15.753906 229.410156 L 359.238281 229.410156 L 359.238281 241.066406 " fill-opacity="1" fill-rule="nonzero"/></g><path fill="#d3d2d2" d="M 147.71875 137.828125 L 210.464844 215.398438 L 201.894531 215.398438 L 147.71875 148.851562 L 147.71875 137.828125 " fill-opacity="1" fill-rule="nonzero"/><path fill="#d3d2d2" d="M 208.050781 101.316406 L 270.796875 178.886719 L 262.226562 178.886719 L 208.050781 112.347656 L 208.050781 101.316406 " fill-opacity="1" fill-rule="nonzero"/><path fill="#f4b106" d="M 156.84375 119.726562 L 147.71875 108.550781 L 147.71875 130.898438 L 216.742188 215.398438 L 234.996094 215.398438 L 156.84375 119.726562 " fill-opacity="1" fill-rule="nonzero"/><path fill="#ffffff" d="M 60.441406 215.398438 L 78.691406 215.398438 L 147.71875 130.898438 L 147.71875 108.550781 L 60.441406 215.398438 " fill-opacity="1" fill-rule="nonzero"/><path fill="#ffffff" d="M 168.980469 119.042969 L 178.109375 130.214844 L 207.371094 94.390625 L 207.371094 72.046875 L 168.980469 119.042969 " fill-opacity="1" fill-rule="nonzero"/><path fill="#f4b106" d="M 272.476562 151.738281 L 272.476562 122.628906 L 258.796875 122.628906 L 258.796875 135 L 216.5 83.21875 L 207.371094 72.046875 L 207.371094 94.390625 L 276.394531 178.886719 L 294.652344 178.886719 L 272.476562 151.738281 " fill-opacity="1" fill-rule="nonzero"/><g fill="#ffffff" fill-opacity="1"><g transform="translate(28.726598, 289.327006)"><g><path d="M 14.203125 -25.0625 C 16.503906 -25.0625 18.472656 -24.660156 20.109375 -23.859375 L 20.109375 -18.203125 L 20.0625 -18.15625 C 19.375 -19.21875 17.921875 -19.921875 15.703125 -20.265625 C 15.046875 -20.378906 14.21875 -20.4375 13.21875 -20.4375 C 12.21875 -20.4375 11.238281 -20.25 10.28125 -19.875 C 9.320312 -19.5 8.535156 -18.960938 7.921875 -18.265625 C 6.722656 -16.921875 6.125 -15.003906 6.125 -12.515625 C 6.125 -9.617188 6.878906 -7.460938 8.390625 -6.046875 C 9.648438 -4.859375 11.316406 -4.265625 13.390625 -4.265625 C 15.734375 -4.265625 17.628906 -4.765625 19.078125 -5.765625 C 19.609375 -6.128906 20.0625 -6.578125 20.4375 -7.109375 L 20.484375 -7.0625 L 20.484375 -1.890625 C 18.597656 -0.316406 16.0625 0.46875 12.875 0.46875 C 9.113281 0.46875 6.164062 -0.726562 4.03125 -3.125 C 1.988281 -5.40625 0.96875 -8.425781 0.96875 -12.1875 C 0.96875 -16.164062 2.085938 -19.300781 4.328125 -21.59375 C 6.597656 -23.90625 9.890625 -25.0625 14.203125 -25.0625 Z M 14.203125 -25.0625 "/></g></g></g><g fill="#ffffff" fill-opacity="1"><g transform="translate(54.069011, 289.327006)"><g><path d="M 5.1875 -2.921875 C 4.070312 -3.992188 3.191406 -5.28125 2.546875 -6.78125 C 1.898438 -8.289062 1.578125 -9.941406 1.578125 -11.734375 C 1.578125 -13.523438 1.878906 -15.222656 2.484375 -16.828125 C 3.085938 -18.429688 3.945312 -19.84375 5.0625 -21.0625 C 6.1875 -22.28125 7.539062 -23.25 9.125 -23.96875 C 10.71875 -24.695312 12.503906 -25.0625 14.484375 -25.0625 C 17.878906 -25.0625 20.742188 -23.988281 23.078125 -21.84375 C 25.566406 -19.550781 26.8125 -16.457031 26.8125 -12.5625 C 26.8125 -8.78125 25.53125 -5.640625 22.96875 -3.140625 C 21.394531 -1.597656 19.515625 -0.539062 17.328125 0.03125 C 16.253906 0.320312 15 0.46875 13.5625 0.46875 C 12.125 0.46875 10.648438 0.171875 9.140625 -0.421875 C 7.628906 -1.015625 6.3125 -1.847656 5.1875 -2.921875 Z M 6.71875 -11.984375 C 6.71875 -10.835938 6.90625 -9.78125 7.28125 -8.8125 C 7.664062 -7.851562 8.195312 -7.03125 8.875 -6.34375 C 10.320312 -4.882812 12.175781 -4.15625 14.4375 -4.15625 C 16.601562 -4.15625 18.335938 -4.851562 19.640625 -6.25 C 20.972656 -7.695312 21.640625 -9.664062 21.640625 -12.15625 C 21.640625 -14.5 21.003906 -16.453125 19.734375 -18.015625 C 18.367188 -19.691406 16.492188 -20.53125 14.109375 -20.53125 C 11.804688 -20.53125 9.976562 -19.675781 8.625 -17.96875 C 7.351562 -16.382812 6.71875 -14.390625 6.71875 -11.984375 Z M 6.71875 -11.984375 "/></g></g></g><g fill="#ffffff" fill-opacity="1"><g transform="translate(85.828728, 289.327006)"><g><path d="M 3.34375 0 C 3.414062 -0.414062 3.453125 -0.875 3.453125 -1.375 L 3.453125 -24.59375 L 7.15625 -24.59375 L 16.953125 -9.171875 L 16.953125 -23.34375 C 16.953125 -24.019531 16.894531 -24.4375 16.78125 -24.59375 L 21.765625 -24.59375 C 21.703125 -24.101562 21.671875 -23.5625 21.671875 -22.96875 L 21.671875 0 L 17.828125 0 L 8.171875 -14.8125 L 8.171875 0 Z M 3.34375 0 "/></g></g></g><g fill="#ffffff" fill-opacity="1"><g transform="translate(114.333556, 289.327006)"><g><path d="M 18.03125 -23.234375 L 17.6875 -17.796875 L 17.546875 -17.75 C 16.640625 -19.125 15.085938 -20.015625 12.890625 -20.421875 C 12.203125 -20.554688 11.539062 -20.625 10.90625 -20.625 C 10.269531 -20.625 9.722656 -20.566406 9.265625 -20.453125 C 8.816406 -20.335938 8.4375 -20.175781 8.125 -19.96875 C 7.445312 -19.53125 7.109375 -18.953125 7.109375 -18.234375 C 7.109375 -17.296875 7.398438 -16.59375 7.984375 -16.125 C 8.722656 -15.5625 9.945312 -15.164062 11.65625 -14.9375 C 13.375 -14.707031 14.75 -14.394531 15.78125 -14 C 16.820312 -13.601562 17.675781 -13.101562 18.34375 -12.5 C 19.601562 -11.363281 20.234375 -9.757812 20.234375 -7.6875 C 20.234375 -4.976562 19.207031 -2.890625 17.15625 -1.421875 C 15.40625 -0.160156 13.203125 0.46875 10.546875 0.46875 C 8.398438 0.46875 6.273438 0.0546875 4.171875 -0.765625 C 3.484375 -1.035156 2.882812 -1.347656 2.375 -1.703125 L 2.578125 -7.875 L 2.640625 -7.9375 C 4.171875 -5.289062 6.679688 -3.96875 10.171875 -3.96875 C 12.648438 -3.96875 14.289062 -4.566406 15.09375 -5.765625 C 15.363281 -6.171875 15.5 -6.625 15.5 -7.125 C 15.5 -7.625 15.414062 -8.035156 15.25 -8.359375 C 15.09375 -8.691406 14.832031 -8.972656 14.46875 -9.203125 C 13.75 -9.671875 12.546875 -9.984375 10.859375 -10.140625 C 9.171875 -10.304688 7.789062 -10.609375 6.71875 -11.046875 C 5.644531 -11.492188 4.785156 -12.046875 4.140625 -12.703125 C 2.984375 -13.890625 2.40625 -15.539062 2.40625 -17.65625 C 2.40625 -19.851562 3.175781 -21.628906 4.71875 -22.984375 C 6.28125 -24.367188 8.390625 -25.0625 11.046875 -25.0625 C 13.703125 -25.0625 16.03125 -24.453125 18.03125 -23.234375 Z M 18.03125 -23.234375 "/></g></g></g><g fill="#ffffff" fill-opacity="1"><g transform="translate(139.768439, 289.327006)"><g><path d="M 12.0625 0.109375 C 11.46875 0.0351562 9.941406 0 7.484375 0 L 6.890625 0 L 6.890625 -20.453125 L 3.234375 -20.453125 C 2.148438 -20.453125 1.507812 -20.394531 1.3125 -20.28125 C 1.113281 -20.175781 0.957031 -20.078125 0.84375 -19.984375 L 0.796875 -20.015625 L 0.796875 -24.75 L 0.84375 -24.796875 C 1.257812 -24.660156 2.359375 -24.59375 4.140625 -24.59375 L 15.734375 -24.59375 C 16.816406 -24.59375 17.457031 -24.644531 17.65625 -24.75 C 17.851562 -24.863281 18.007812 -24.96875 18.125 -25.0625 L 18.171875 -25.046875 L 18.171875 -20.3125 L 18.125 -20.25 C 17.71875 -20.382812 16.617188 -20.453125 14.828125 -20.453125 L 12.0625 -20.453125 Z M 12.0625 0.109375 "/></g></g></g><g fill="#ffffff" fill-opacity="1"><g transform="translate(162.114879, 289.327006)"><g><path d="M 11.140625 -9.5625 C 10.765625 -9.539062 10.367188 -9.53125 9.953125 -9.53125 C 9.535156 -9.53125 8.910156 -9.554688 8.078125 -9.609375 L 8.078125 0 L 3.1875 0 L 3.1875 -24.71875 C 4.90625 -24.945312 7.023438 -25.0625 9.546875 -25.0625 C 12.972656 -25.0625 15.523438 -24.425781 17.203125 -23.15625 C 18.890625 -21.894531 19.734375 -19.945312 19.734375 -17.3125 C 19.734375 -15.257812 18.960938 -13.507812 17.421875 -12.0625 C 16.910156 -11.59375 16.332031 -11.1875 15.6875 -10.84375 L 19.453125 -2.890625 C 20.191406 -1.242188 20.757812 -0.269531 21.15625 0.03125 L 21.0625 0.125 C 19.863281 -0.0703125 17.984375 -0.0664062 15.421875 0.140625 Z M 9.890625 -20.6875 C 9.265625 -20.6875 8.660156 -20.660156 8.078125 -20.609375 L 8.078125 -13.53125 C 8.679688 -13.445312 9.390625 -13.40625 10.203125 -13.40625 C 11.015625 -13.40625 11.695312 -13.472656 12.25 -13.609375 C 12.8125 -13.753906 13.296875 -13.976562 13.703125 -14.28125 C 14.578125 -14.925781 15.015625 -15.898438 15.015625 -17.203125 C 15.015625 -18.515625 14.554688 -19.4375 13.640625 -19.96875 C 12.796875 -20.445312 11.546875 -20.6875 9.890625 -20.6875 Z M 9.890625 -20.6875 "/></g></g></g><g fill="#ffffff" fill-opacity="1"><g transform="translate(187.549754, 289.327006)"><g><path d="M 17.203125 -24.6875 C 17.960938 -24.625 18.597656 -24.59375 19.109375 -24.59375 L 20.640625 -24.59375 C 21.160156 -24.59375 21.703125 -24.644531 22.265625 -24.75 L 22.265625 -9.453125 C 22.265625 -6.421875 21.347656 -3.984375 19.515625 -2.140625 C 17.773438 -0.398438 15.59375 0.46875 12.96875 0.46875 C 10.09375 0.46875 7.765625 -0.28125 5.984375 -1.78125 C 4.003906 -3.457031 3.015625 -5.875 3.015625 -9.03125 L 3.015625 -24.6875 C 4.035156 -24.625 5 -24.59375 5.90625 -24.59375 C 6.8125 -24.59375 7.5625 -24.644531 8.15625 -24.75 L 8.15625 -8.78125 C 8.15625 -7.226562 8.628906 -6.019531 9.578125 -5.15625 C 10.460938 -4.363281 11.570312 -3.96875 12.90625 -3.96875 C 14.882812 -3.96875 16.195312 -4.984375 16.84375 -7.015625 C 17.082031 -7.734375 17.203125 -8.628906 17.203125 -9.703125 Z M 17.203125 -24.6875 "/></g></g></g><g fill="#ffffff" fill-opacity="1"><g transform="translate(216.221029, 289.327006)"><g><path d="M 14.203125 -25.0625 C 16.503906 -25.0625 18.472656 -24.660156 20.109375 -23.859375 L 20.109375 -18.203125 L 20.0625 -18.15625 C 19.375 -19.21875 17.921875 -19.921875 15.703125 -20.265625 C 15.046875 -20.378906 14.21875 -20.4375 13.21875 -20.4375 C 12.21875 -20.4375 11.238281 -20.25 10.28125 -19.875 C 9.320312 -19.5 8.535156 -18.960938 7.921875 -18.265625 C 6.722656 -16.921875 6.125 -15.003906 6.125 -12.515625 C 6.125 -9.617188 6.878906 -7.460938 8.390625 -6.046875 C 9.648438 -4.859375 11.316406 -4.265625 13.390625 -4.265625 C 15.734375 -4.265625 17.628906 -4.765625 19.078125 -5.765625 C 19.609375 -6.128906 20.0625 -6.578125 20.4375 -7.109375 L 20.484375 -7.0625 L 20.484375 -1.890625 C 18.597656 -0.316406 16.0625 0.46875 12.875 0.46875 C 9.113281 0.46875 6.164062 -0.726562 4.03125 -3.125 C 1.988281 -5.40625 0.96875 -8.425781 0.96875 -12.1875 C 0.96875 -16.164062 2.085938 -19.300781 4.328125 -21.59375 C 6.597656 -23.90625 9.890625 -25.0625 14.203125 -25.0625 Z M 14.203125 -25.0625 "/></g></g></g><g fill="#ffffff" fill-opacity="1"><g transform="translate(241.563444, 289.327006)"><g><path d="M 12.0625 0.109375 C 11.46875 0.0351562 9.941406 0 7.484375 0 L 6.890625 0 L 6.890625 -20.453125 L 3.234375 -20.453125 C 2.148438 -20.453125 1.507812 -20.394531 1.3125 -20.28125 C 1.113281 -20.175781 0.957031 -20.078125 0.84375 -19.984375 L 0.796875 -20.015625 L 0.796875 -24.75 L 0.84375 -24.796875 C 1.257812 -24.660156 2.359375 -24.59375 4.140625 -24.59375 L 15.734375 -24.59375 C 16.816406 -24.59375 17.457031 -24.644531 17.65625 -24.75 C 17.851562 -24.863281 18.007812 -24.96875 18.125 -25.0625 L 18.171875 -25.046875 L 18.171875 -20.3125 L 18.125 -20.25 C 17.71875 -20.382812 16.617188 -20.453125 14.828125 -20.453125 L 12.0625 -20.453125 Z M 12.0625 0.109375 "/></g></g></g><g fill="#ffffff" fill-opacity="1"><g transform="translate(263.909884, 289.327006)"><g><path d="M 5.1875 -2.921875 C 4.070312 -3.992188 3.191406 -5.28125 2.546875 -6.78125 C 1.898438 -8.289062 1.578125 -9.941406 1.578125 -11.734375 C 1.578125 -13.523438 1.878906 -15.222656 2.484375 -16.828125 C 3.085938 -18.429688 3.945312 -19.84375 5.0625 -21.0625 C 6.1875 -22.28125 7.539062 -23.25 9.125 -23.96875 C 10.71875 -24.695312 12.503906 -25.0625 14.484375 -25.0625 C 17.878906 -25.0625 20.742188 -23.988281 23.078125 -21.84375 C 25.566406 -19.550781 26.8125 -16.457031 26.8125 -12.5625 C 26.8125 -8.78125 25.53125 -5.640625 22.96875 -3.140625 C 21.394531 -1.597656 19.515625 -0.539062 17.328125 0.03125 C 16.253906 0.320312 15 0.46875 13.5625 0.46875 C 12.125 0.46875 10.648438 0.171875 9.140625 -0.421875 C 7.628906 -1.015625 6.3125 -1.847656 5.1875 -2.921875 Z M 6.71875 -11.984375 C 6.71875 -10.835938 6.90625 -9.78125 7.28125 -8.8125 C 7.664062 -7.851562 8.195312 -7.03125 8.875 -6.34375 C 10.320312 -4.882812 12.175781 -4.15625 14.4375 -4.15625 C 16.601562 -4.15625 18.335938 -4.851562 19.640625 -6.25 C 20.972656 -7.695312 21.640625 -9.664062 21.640625 -12.15625 C 21.640625 -14.5 21.003906 -16.453125 19.734375 -18.015625 C 18.367188 -19.691406 16.492188 -20.53125 14.109375 -20.53125 C 11.804688 -20.53125 9.976562 -19.675781 8.625 -17.96875 C 7.351562 -16.382812 6.71875 -14.390625 6.71875 -11.984375 Z M 6.71875 -11.984375 "/></g></g></g><g fill="#ffffff" fill-opacity="1"><g transform="translate(295.669602, 289.327006)"><g><path d="M 3.34375 0 C 3.414062 -0.414062 3.453125 -0.875 3.453125 -1.375 L 3.453125 -24.59375 L 7.15625 -24.59375 L 16.953125 -9.171875 L 16.953125 -23.34375 C 16.953125 -24.019531 16.894531 -24.4375 16.78125 -24.59375 L 21.765625 -24.59375 C 21.703125 -24.101562 21.671875 -23.5625 21.671875 -22.96875 L 21.671875 0 L 17.828125 0 L 8.171875 -14.8125 L 8.171875 0 Z M 3.34375 0 "/></g></g></g><g fill="#ffffff" fill-opacity="1"><g transform="translate(324.174434, 289.327006)"><g><path d="M 8.34375 0 C 8.5 -0.476562 8.578125 -1.597656 8.578125 -3.359375 L 8.578125 -8.5 C 6.441406 -13.195312 5.078125 -16.128906 4.484375 -17.296875 C 3.898438 -18.460938 3.40625 -19.382812 3 -20.0625 C 1.71875 -22.238281 0.941406 -23.484375 0.671875 -23.796875 C 0.410156 -24.117188 0.144531 -24.382812 -0.125 -24.59375 L 6.25 -24.59375 C 6.382812 -24.351562 6.570312 -23.988281 6.8125 -23.5 L 11.28125 -14.0625 C 11.488281 -14.570312 11.734375 -15.148438 12.015625 -15.796875 C 14.703125 -21.578125 16.066406 -24.507812 16.109375 -24.59375 L 22.203125 -24.59375 C 21.578125 -24.09375 20.8125 -23.035156 19.90625 -21.421875 C 19.613281 -20.929688 19.328125 -20.378906 19.046875 -19.765625 L 14.875 -11.0625 C 14.40625 -10.007812 14.003906 -9.066406 13.671875 -8.234375 L 13.671875 -2.921875 C 13.671875 -1.691406 13.742188 -0.71875 13.890625 0 Z M 8.34375 0 "/></g></g></g></svg>