<svg xmlns="http://www.w3.org/2000/svg" version="1.1" xmlns:xlink="http://www.w3.org/1999/xlink" viewBox="0 0 1422 800" style="overflow: hidden; display: block;" width="1422" height="800"><defs><linearGradient id="dddraw-gradient" x1="711" y1="-400" x2="711" y2="800" spreadMethod="pad" gradientUnits="userSpaceOnUse"><stop offset="0%" stop-color="#32e3f0" stop-opacity="1"></stop><stop offset="100%" stop-color="#1ffecc" stop-opacity="1"></stop></linearGradient></defs><g id="two-0" transform="matrix(1 0 0 1 0 0)" opacity="1"></g><path d="M 218.91590301174065 395.69605171862776 Q 218.91590301174065 395.69605171862776 219.5431217959014 393.530755471792 220.17034058006217 391.3654592249563 224.41158252546478 385.9441804720763 228.65282447086742 380.52290171919634 233.74575095808547 375.7681918555129 238.83867744530352 371.01348199182945 244.87672257940778 368.0350830935251 250.91476771351202 365.0566841952207 258.06478221527215 363.2691368738481 265.21479671703224 361.4815895524755 271.9775544589107 359.99476573311904 278.7403122007891 358.50794191376264 284.7032351995947 356.1658240480349 290.66615819840035 353.82370618230715 296.9154582139415 353.3292569801057 303.16475822948263 352.83480777790425 309.6933613582755 350.85299365795527 316.2219644870684 348.87117953800623 322.47298817731587 348.1092152692114 328.72401186756326 347.3472510004166 335.0685943650966 347.23762758187473 341.41317686262994 347.1280041633329 349.3838153897734 347.079078552954 357.3544539169169 347.03015294257506 364.2295363066047 347.05687304763603 371.10461869629245 347.08359315269706 377.32912638944606 348.2082620512441 383.5536340825997 349.33293094979115 390.76770230904975 350.46314062287104 397.98177053549983 351.59335029595087 404.9168082438165 352.8796283492064 411.8518459521332 354.165906402462 420.06399393805236 356.13019861951625 428.27614192397147 358.09449083657046 434.572865457552 360.1752844717672 440.86958899113245 362.2560781069639 447.3639761568891 364.04954091662086 453.8583633226458 365.8430037262778 459.9022882367518 368.2777354494599 465.9462131508579 370.71246717264205 472.3052861621425 372.6155965937436 478.66435917342716 374.5187260148451 487.8882997896636 378.1978804480756 497.1122404059 381.8770348813061 504.103528767341 384.34691877931465 511.094817128782 386.8168026773232 518.7885779689225 389.4098875381417 526.4823388090631 392.0029723989602 534.4887057082857 394.65078613279695 542.4950726075083 397.29859986663377 548.7604442917989 400.2119153441023 555.0258159760895 403.1252308215709 565.248638356152 406.3135512131488 575.4714607362147 409.50187160472666 583.4681670818795 412.1474468175169 591.4648734275445 414.79302203030704 600.317927154925 416.72262010866416 609.1709808823055 418.6522181870212 619.7841247131323 420.6457576417574 630.3972685439592 422.6392970964937 637.1080977752453 423.24723625198067 643.8189270065313 423.85517540746764 651.9903141038966 424.68630558361065 660.1617012012618 425.51743575975365 666.6175689057975 425.81838650208823 673.0734366103333 426.1193372444228 679.4406955210976 426.0482091822905 685.807954431862 425.9770811201583 692.462944847897 425.74063285065705 699.1179352639319 425.5041845811558 706.8906996299369 425.4635678367862 714.6634639959418 425.4229510924166 721.8443679367728 425.3041886053769 729.0252718776037 425.18542611833715 737.4058649672663 425.2968692238726 745.786458056929 425.408312329408 752.889140852945 425.4450319238964 759.9918236489613 425.48175151838484 772.6430035147357 424.9991463819091 785.2941833805102 424.5165412454333 791.5306918537674 423.54131822511135 797.7672003270247 422.5660952047894 806.0094286989868 422.1348739892952 814.2516570709488 421.70365277380097 821.9980877185933 421.57564821688914 829.7445183662378 421.4476436599773 836.2330674655577 421.3419148847677 842.7216165648776 421.2361861095581 853.5812378201413 421.0468475405058 864.4408590754049 420.85750897145346 877.1283778864088 420.85044816538425 889.8158966974125 420.84338735931505 896.870682640915 420.8973735990591 903.9254685844173 420.95135983880317 917.0619084247642 420.47070490624094 930.1983482651111 419.99004997367877 937.4117093913278 419.9732200391252 944.6250705175444 419.9563901045716 946.5670823139033 420.2567674602442 948.5090941102623 420.5571448159168 950.2535274387899 421.4619037536014 951.9979607673176 422.36666269128597 953.3621729980314 423.78107471137383 954.7263852287452 425.1954867314617 955.5675429809725 426.97146252208114 956.4087007331997 428.7474383127006 956.638734568238 430.6990327397616 956.8687684032762 432.6506271668227 956.4635937178741 434.5735077786412 956.058419032472 436.4963883904597 955.0604577231468 438.189229079387 954.0624964138215 439.8820697683144 952.5762352930956 441.16762966735337 951.0899741723698 442.4531895663924 949.2710251719184 443.19687021475875 947.4520761714668 443.9405508631251 945.4908837317928 444.0644887006223 943.5296912921186 444.1884265381195 941.6315927793604 443.6796452404451 939.7334942666022 443.17086394277067 938.0972210960949 442.0826330460964 936.4609479255877 440.99440214942217 935.2578183302178 439.440659715895 934.0546887348478 437.88691728236773 933.4106707008457 436.030340554926 932.7666526668435 434.17376382748427 932.7491750523735 432.2087368795798 932.7316974379036 430.24370993167537 933.3425901538144 428.37597160347053 933.9534828697252 426.5082332752657 935.1287852874009 424.9333362627586 936.3040877050767 423.3584392502515 937.9207453511369 422.24127568638403 939.5374029971972 421.1241121225165 941.4261513893433 420.58164932732814 943.3148997814894 420.03918653213975 945.2779864644826 420.12822050348296 947.2410731474757 420.2172544748262 949.072962427402 420.9284633323987 950.9048517073282 421.6396721899712 952.4137442930075 422.8985921786442 953.9226368786867 424.15751216731724 954.9505513180893 425.83233403195413 955.978465757492 427.507155896591 956.4177791374696 429.4225253458542 956.8570925174471 431.33789479511745 956.6618086111484 433.29327214206074 956.4665247048498 435.24864948900404 955.6570897888143 437.0393062092329 954.8476548727789 438.8299629294618 953.5088169963856 440.2684167916808 952.1699791199923 441.7068706538999 950.4419149623184 442.64251515901987 948.7138508046446 443.57815966413983 946.7774891391632 443.9130325854885 944.8411274736819 444.2479055068371 944.8429493373508 444.2478893025653 944.8447712010195 444.24787309829344 937.7983225316141 444.36001387990126 930.7518738622085 444.4721546615091 924.2363492702029 444.6342731641315 917.7208246781973 444.796391666754 910.8262368119613 445.17110346633774 903.9316489457253 445.5458152659215 896.879191296337 445.60222583834235 889.8267336469488 445.6586364107632 877.1713366376614 445.6707018278882 864.5159396283741 445.68276724501317 853.7844475433715 445.5993178009114 843.0529554583688 445.5158683568097 836.7296284171643 445.5849823059766 830.4063013759599 445.6540962551436 823.1055979923613 445.9374863438237 815.8048946087627 446.2208764325038 808.7734601579008 446.7576426184023 801.7420257070389 447.2944088043009 793.8494137056371 448.59680319902066 785.9568017042353 449.89919759374044 779.6290381669219 450.0954401375677 773.3012746296084 450.29168268139495 766.764709511948 450.70683545641435 760.2281443942876 451.12198823143376 753.2484781942846 451.28747308005035 746.2688119942818 451.45295792866693 738.2905570039271 451.86737810273917 730.3123020135724 452.28179827681146 722.4883422505022 452.8759230098585 714.664382487432 453.47004774290554 706.8874065404233 453.42872398496195 699.1104305934145 453.3874002270183 692.2645999446383 453.1253670408364 685.4187692958623 452.8633338546545 678.7924958930663 452.4741271576313 672.1662224902703 452.08492046060815 665.2810602412621 451.9197472216952 658.395897992254 451.7545739827823 650.2751658400124 451.4889418501077 642.1544336877707 451.22330971743315 634.0174082278861 450.92822423372155 625.8803827680015 450.63313875000995 619.1509685380613 449.72308223145626 612.4215543081212 448.81302571290263 602.9609050470647 446.9441464730811 593.5002557860081 445.07526723325964 583.7531124653199 442.6740270760449 574.0059691446315 440.27278691883026 565.7840391825296 437.6920162903124 557.5621092204277 435.1112456617945 550.1907308436598 433.2276324382658 542.8193524668918 431.34401921473705 533.1102344695144 427.99941777687764 523.4011164721369 424.6548163390183 514.8580785238771 421.8703514716184 506.31504057561733 419.08588660421844 498.8747268624868 416.2888044397729 491.43441314935626 413.4917222753274 482.97764303299107 410.5506481788211 474.5208729166258 407.6095740823149 467.47385792547027 405.3608134221639 460.4268429343147 403.112052762013 451.3196969226665 399.90932048788 442.2125509110183 396.706588213747 434.15047579876864 394.24940060364315 426.0884006865189 391.79221299353924 420.0088755055608 389.76889121484 413.92935032460264 387.7455694361408 407.07265858052835 386.30230041394134 400.2159668364541 384.8590313917419 392.8824207857632 384.0981683894404 385.5488747350723 383.3373053871388 378.2918292318622 381.93511417481596 371.03478372865214 380.5329229624931 364.1946188991169 380.5596430790332 357.3544540695817 380.58636319557337 350.4747607329715 380.549185072577 343.5950673963613 380.51200694958067 337.59021385813446 378.73439297284654 331.5853603199076 376.9567789961124 324.49076898773615 380.1541258426679 317.3961776555647 383.3514726892234 310.62162635290156 381.69012090870484 303.84707505023846 380.0287691281863 295.87940341128046 383.79585562513284 287.9117317723225 387.56294212207945 279.607804929649 387.70095664847156 271.30387808697543 387.83897117486373 265.10017187456646 388.97386892607585 258.8964656621575 390.108766677288 251.9191912336746 394.8612441802674 244.9419168051917 399.61372168324687 244.14316436742865 401.7263215545752 243.3444119296656 403.8389214259035 242.67974439628716 405.2413402522343 242.0150768629087 406.64375907856504 241.0340933162799 407.8463532643226 240.05310976965106 409.04894745008016 238.81282501959325 409.9818221646847 237.57254026953544 410.9146968792891 236.14503972399655 411.5236334004968 234.71753917845763 412.1325699217045 233.1857892362152 412.382176830292 231.65403929397274 412.6317837388795 230.10706533363884 412.507553869592 228.5600913733049 412.38332400030447 227.08780359413842 411.8924775989819 225.61551581497193 411.4016311976593 224.30348365187314 410.5726962802088 222.99145148877435 409.7437613627583 221.91593031270816 408.62491566552944 220.84040913664194 407.50606996830055 220.06390828889442 406.16234085578503 219.28740744114694 404.81861174326946 218.85505718747294 403.3280968146215 218.42270693379896 401.8375818859736 218.35963549125591 400.2869099388778 218.29656404871284 398.736237991782 218.6064371325047 397.2155341526616 218.9163102162966 395.6948303135411 218.91610661401864 395.69544101608443 Z" fill="url(#dddraw-gradient)"></path></svg>