<svg xmlns="http://www.w3.org/2000/svg" xmlns:xlink="http://www.w3.org/1999/xlink" width="500" zoomAndPan="magnify" viewBox="0 0 375 374.999991" height="500" preserveAspectRatio="xMidYMid meet" version="1.0"><defs><g/><clipPath id="9d3a071bb1"><path d="M 15.117188 229 L 360.117188 229 L 360.117188 241 L 15.117188 241 Z M 15.117188 229 " clip-rule="nonzero"/></clipPath><clipPath id="acb28bd4af"><path d="M 169 71.546875 L 208 71.546875 L 208 130 L 169 130 Z M 169 71.546875 " clip-rule="nonzero"/></clipPath><clipPath id="8caad7a0c7"><path d="M 207 71.546875 L 296 71.546875 L 296 179 L 207 179 Z M 207 71.546875 " clip-rule="nonzero"/></clipPath></defs><path fill="#112f59" d="M 145.964844 190.300781 L 133.875 190.300781 L 133.875 178.242188 L 145.964844 178.242188 L 145.964844 190.300781 " fill-opacity="1" fill-rule="nonzero"/><path fill="#112f59" d="M 161.453125 190.300781 L 149.363281 190.300781 L 149.363281 178.242188 L 161.453125 178.242188 L 161.453125 190.300781 " fill-opacity="1" fill-rule="nonzero"/><path fill="#112f59" d="M 145.964844 205.375 L 133.875 205.375 L 133.875 193.316406 L 145.964844 193.316406 L 145.964844 205.375 " fill-opacity="1" fill-rule="nonzero"/><path fill="#112f59" d="M 161.453125 205.375 L 149.363281 205.375 L 149.363281 193.316406 L 161.453125 193.316406 L 161.453125 205.375 " fill-opacity="1" fill-rule="nonzero"/><g clip-path="url(#9d3a071bb1)"><path fill="#112f59" d="M 360.117188 240.972656 L 15.121094 240.972656 L 15.121094 229.296875 L 360.117188 229.296875 L 360.117188 240.972656 " fill-opacity="1" fill-rule="nonzero"/></g><path fill="#d3d2d2" d="M 147.664062 137.535156 L 210.6875 215.253906 L 202.082031 215.253906 L 147.664062 148.582031 L 147.664062 137.535156 " fill-opacity="1" fill-rule="nonzero"/><path fill="#d3d2d2" d="M 208.261719 100.953125 L 271.285156 178.675781 L 262.675781 178.675781 L 208.261719 112.003906 L 208.261719 100.953125 " fill-opacity="1" fill-rule="nonzero"/><path fill="#112f59" d="M 156.832031 119.398438 L 147.664062 108.203125 L 147.664062 130.59375 L 216.992188 215.253906 L 235.328125 215.253906 L 156.832031 119.398438 " fill-opacity="1" fill-rule="nonzero"/><path fill="#18427b" d="M 60.003906 215.253906 L 78.332031 215.253906 L 147.664062 130.59375 L 147.664062 108.203125 L 60.003906 215.253906 " fill-opacity="1" fill-rule="nonzero"/><g clip-path="url(#acb28bd4af)"><path fill="#18427b" d="M 169.023438 118.710938 L 178.1875 129.90625 L 207.582031 94.011719 L 207.582031 71.625 L 169.023438 118.710938 " fill-opacity="1" fill-rule="nonzero"/></g><g clip-path="url(#8caad7a0c7)"><path fill="#112f59" d="M 272.96875 151.472656 L 272.96875 122.308594 L 259.234375 122.308594 L 259.234375 134.699219 L 216.75 82.820312 L 207.582031 71.625 L 207.582031 94.011719 L 276.910156 178.675781 L 295.246094 178.675781 L 272.96875 151.472656 " fill-opacity="1" fill-rule="nonzero"/></g><g fill="#000000" fill-opacity="1"><g transform="translate(28.139741, 289.703357)"><g><path d="M 14.25 -25.15625 C 16.570312 -25.15625 18.546875 -24.753906 20.171875 -23.953125 L 20.171875 -18.265625 L 20.140625 -18.234375 C 19.441406 -19.296875 17.984375 -20 15.765625 -20.34375 C 15.109375 -20.457031 14.273438 -20.515625 13.265625 -20.515625 C 12.265625 -20.515625 11.28125 -20.320312 10.3125 -19.9375 C 9.351562 -19.5625 8.5625 -19.03125 7.9375 -18.34375 C 6.738281 -16.988281 6.140625 -15.0625 6.140625 -12.5625 C 6.140625 -9.65625 6.898438 -7.488281 8.421875 -6.0625 C 9.691406 -4.875 11.363281 -4.28125 13.4375 -4.28125 C 15.789062 -4.28125 17.695312 -4.785156 19.15625 -5.796875 C 19.6875 -6.148438 20.140625 -6.59375 20.515625 -7.125 L 20.5625 -7.09375 L 20.5625 -1.890625 C 18.675781 -0.316406 16.128906 0.46875 12.921875 0.46875 C 9.148438 0.46875 6.191406 -0.734375 4.046875 -3.140625 C 1.992188 -5.429688 0.96875 -8.460938 0.96875 -12.234375 C 0.96875 -16.234375 2.09375 -19.382812 4.34375 -21.6875 C 6.625 -24 9.925781 -25.15625 14.25 -25.15625 Z M 14.25 -25.15625 "/></g></g></g><g fill="#000000" fill-opacity="1"><g transform="translate(53.575823, 289.703357)"><g><path d="M 5.21875 -2.921875 C 4.09375 -4.003906 3.203125 -5.300781 2.546875 -6.8125 C 1.898438 -8.320312 1.578125 -9.976562 1.578125 -11.78125 C 1.578125 -13.582031 1.878906 -15.285156 2.484375 -16.890625 C 3.085938 -18.503906 3.953125 -19.921875 5.078125 -21.140625 C 6.210938 -22.367188 7.578125 -23.34375 9.171875 -24.0625 C 10.765625 -24.789062 12.550781 -25.15625 14.53125 -25.15625 C 17.945312 -25.15625 20.828125 -24.078125 23.171875 -21.921875 C 25.671875 -19.617188 26.921875 -16.515625 26.921875 -12.609375 C 26.921875 -8.816406 25.628906 -5.664062 23.046875 -3.15625 C 21.460938 -1.601562 19.578125 -0.539062 17.390625 0.03125 C 16.316406 0.320312 15.054688 0.46875 13.609375 0.46875 C 12.171875 0.46875 10.691406 0.171875 9.171875 -0.421875 C 7.660156 -1.015625 6.34375 -1.847656 5.21875 -2.921875 Z M 6.734375 -12.03125 C 6.734375 -10.875 6.925781 -9.8125 7.3125 -8.84375 C 7.695312 -7.882812 8.226562 -7.054688 8.90625 -6.359375 C 10.351562 -4.898438 12.21875 -4.171875 14.5 -4.171875 C 16.664062 -4.171875 18.40625 -4.875 19.71875 -6.28125 C 21.050781 -7.726562 21.71875 -9.703125 21.71875 -12.203125 C 21.71875 -14.546875 21.082031 -16.503906 19.8125 -18.078125 C 18.4375 -19.765625 16.550781 -20.609375 14.15625 -20.609375 C 11.84375 -20.609375 10.007812 -19.753906 8.65625 -18.046875 C 7.375 -16.441406 6.734375 -14.4375 6.734375 -12.03125 Z M 6.734375 -12.03125 "/></g></g></g><g fill="#000000" fill-opacity="1"><g transform="translate(85.452927, 289.703357)"><g><path d="M 3.359375 0 C 3.429688 -0.414062 3.46875 -0.875 3.46875 -1.375 L 3.46875 -24.6875 L 7.1875 -24.6875 L 17.015625 -9.203125 L 17.015625 -23.421875 C 17.015625 -24.109375 16.957031 -24.53125 16.84375 -24.6875 L 21.84375 -24.6875 C 21.78125 -24.195312 21.75 -23.648438 21.75 -23.046875 L 21.75 0 L 17.890625 0 L 8.203125 -14.875 L 8.203125 0 Z M 3.359375 0 "/></g></g></g><g fill="#000000" fill-opacity="1"><g transform="translate(114.063113, 289.703357)"><g><path d="M 18.09375 -23.3125 L 17.75 -17.859375 L 17.609375 -17.8125 C 16.691406 -19.1875 15.132812 -20.082031 12.9375 -20.5 C 12.25 -20.632812 11.582031 -20.703125 10.9375 -20.703125 C 10.300781 -20.703125 9.753906 -20.644531 9.296875 -20.53125 C 8.847656 -20.414062 8.46875 -20.253906 8.15625 -20.046875 C 7.46875 -19.597656 7.125 -19.015625 7.125 -18.296875 C 7.125 -17.359375 7.421875 -16.65625 8.015625 -16.1875 C 8.753906 -15.613281 9.984375 -15.210938 11.703125 -14.984375 C 13.429688 -14.753906 14.8125 -14.441406 15.84375 -14.046875 C 16.882812 -13.648438 17.738281 -13.148438 18.40625 -12.546875 C 19.675781 -11.410156 20.3125 -9.800781 20.3125 -7.71875 C 20.3125 -5 19.28125 -2.898438 17.21875 -1.421875 C 15.46875 -0.160156 13.253906 0.46875 10.578125 0.46875 C 8.421875 0.46875 6.289062 0.0546875 4.1875 -0.765625 C 3.5 -1.035156 2.894531 -1.347656 2.375 -1.703125 L 2.578125 -7.90625 L 2.65625 -7.96875 C 4.1875 -5.3125 6.703125 -3.984375 10.203125 -3.984375 C 12.691406 -3.984375 14.335938 -4.585938 15.140625 -5.796875 C 15.421875 -6.203125 15.5625 -6.65625 15.5625 -7.15625 C 15.5625 -7.65625 15.476562 -8.066406 15.3125 -8.390625 C 15.15625 -8.722656 14.890625 -9.007812 14.515625 -9.25 C 13.796875 -9.71875 12.585938 -10.03125 10.890625 -10.1875 C 9.203125 -10.351562 7.816406 -10.65625 6.734375 -11.09375 C 5.660156 -11.539062 4.800781 -12.09375 4.15625 -12.75 C 2.988281 -13.9375 2.40625 -15.597656 2.40625 -17.734375 C 2.40625 -19.929688 3.179688 -21.710938 4.734375 -23.078125 C 6.304688 -24.460938 8.425781 -25.15625 11.09375 -25.15625 C 13.757812 -25.15625 16.09375 -24.539062 18.09375 -23.3125 Z M 18.09375 -23.3125 "/></g></g></g><g fill="#000000" fill-opacity="1"><g transform="translate(139.592006, 289.703357)"><g><path d="M 12.109375 0.109375 C 11.515625 0.0351562 9.984375 0 7.515625 0 L 6.921875 0 L 6.921875 -20.53125 L 3.25 -20.53125 C 2.15625 -20.53125 1.507812 -20.472656 1.3125 -20.359375 C 1.113281 -20.253906 0.960938 -20.15625 0.859375 -20.0625 L 0.796875 -20.078125 L 0.796875 -24.84375 L 0.859375 -24.890625 C 1.265625 -24.753906 2.363281 -24.6875 4.15625 -24.6875 L 15.796875 -24.6875 C 16.890625 -24.6875 17.535156 -24.738281 17.734375 -24.84375 C 17.929688 -24.957031 18.082031 -25.0625 18.1875 -25.15625 L 18.25 -25.140625 L 18.25 -20.375 L 18.1875 -20.328125 C 17.78125 -20.460938 16.679688 -20.53125 14.890625 -20.53125 L 12.109375 -20.53125 Z M 12.109375 0.109375 "/></g></g></g><g fill="#000000" fill-opacity="1"><g transform="translate(162.021042, 289.703357)"><g><path d="M 11.171875 -9.59375 C 10.804688 -9.570312 10.410156 -9.5625 9.984375 -9.5625 C 9.566406 -9.5625 8.941406 -9.59375 8.109375 -9.65625 L 8.109375 0 L 3.1875 0 L 3.1875 -24.8125 C 4.925781 -25.039062 7.054688 -25.15625 9.578125 -25.15625 C 13.015625 -25.15625 15.578125 -24.519531 17.265625 -23.25 C 18.960938 -21.976562 19.8125 -20.019531 19.8125 -17.375 C 19.8125 -15.320312 19.035156 -13.566406 17.484375 -12.109375 C 16.972656 -11.628906 16.390625 -11.21875 15.734375 -10.875 L 19.53125 -2.890625 C 20.269531 -1.242188 20.835938 -0.269531 21.234375 0.03125 L 21.140625 0.125 C 19.941406 -0.0703125 18.054688 -0.0625 15.484375 0.15625 Z M 9.9375 -20.765625 C 9.300781 -20.765625 8.691406 -20.734375 8.109375 -20.671875 L 8.109375 -13.59375 C 8.710938 -13.5 9.421875 -13.453125 10.234375 -13.453125 C 11.054688 -13.453125 11.742188 -13.523438 12.296875 -13.671875 C 12.859375 -13.816406 13.34375 -14.035156 13.75 -14.328125 C 14.632812 -14.984375 15.078125 -15.96875 15.078125 -17.28125 C 15.078125 -18.59375 14.617188 -19.515625 13.703125 -20.046875 C 12.847656 -20.523438 11.59375 -20.765625 9.9375 -20.765625 Z M 9.9375 -20.765625 "/></g></g></g><g fill="#000000" fill-opacity="1"><g transform="translate(187.549927, 289.703357)"><g><path d="M 17.265625 -24.78125 C 18.023438 -24.71875 18.660156 -24.6875 19.171875 -24.6875 L 20.71875 -24.6875 C 21.238281 -24.6875 21.78125 -24.738281 22.34375 -24.84375 L 22.34375 -9.484375 C 22.34375 -6.441406 21.421875 -4 19.578125 -2.15625 C 17.835938 -0.40625 15.648438 0.46875 13.015625 0.46875 C 10.128906 0.46875 7.796875 -0.28125 6.015625 -1.78125 C 4.023438 -3.46875 3.03125 -5.894531 3.03125 -9.0625 L 3.03125 -24.78125 C 4.050781 -24.71875 5.015625 -24.6875 5.921875 -24.6875 C 6.835938 -24.6875 7.59375 -24.738281 8.1875 -24.84375 L 8.1875 -8.8125 C 8.1875 -7.257812 8.660156 -6.046875 9.609375 -5.171875 C 10.503906 -4.378906 11.617188 -3.984375 12.953125 -3.984375 C 14.929688 -3.984375 16.25 -5 16.90625 -7.03125 C 17.144531 -7.757812 17.265625 -8.664062 17.265625 -9.75 Z M 17.265625 -24.78125 "/></g></g></g><g fill="#000000" fill-opacity="1"><g transform="translate(216.327175, 289.703357)"><g><path d="M 14.25 -25.15625 C 16.570312 -25.15625 18.546875 -24.753906 20.171875 -23.953125 L 20.171875 -18.265625 L 20.140625 -18.234375 C 19.441406 -19.296875 17.984375 -20 15.765625 -20.34375 C 15.109375 -20.457031 14.273438 -20.515625 13.265625 -20.515625 C 12.265625 -20.515625 11.28125 -20.320312 10.3125 -19.9375 C 9.351562 -19.5625 8.5625 -19.03125 7.9375 -18.34375 C 6.738281 -16.988281 6.140625 -15.0625 6.140625 -12.5625 C 6.140625 -9.65625 6.898438 -7.488281 8.421875 -6.0625 C 9.691406 -4.875 11.363281 -4.28125 13.4375 -4.28125 C 15.789062 -4.28125 17.695312 -4.785156 19.15625 -5.796875 C 19.6875 -6.148438 20.140625 -6.59375 20.515625 -7.125 L 20.5625 -7.09375 L 20.5625 -1.890625 C 18.675781 -0.316406 16.128906 0.46875 12.921875 0.46875 C 9.148438 0.46875 6.191406 -0.734375 4.046875 -3.140625 C 1.992188 -5.429688 0.96875 -8.460938 0.96875 -12.234375 C 0.96875 -16.234375 2.09375 -19.382812 4.34375 -21.6875 C 6.625 -24 9.925781 -25.15625 14.25 -25.15625 Z M 14.25 -25.15625 "/></g></g></g><g fill="#000000" fill-opacity="1"><g transform="translate(241.763258, 289.703357)"><g><path d="M 12.109375 0.109375 C 11.515625 0.0351562 9.984375 0 7.515625 0 L 6.921875 0 L 6.921875 -20.53125 L 3.25 -20.53125 C 2.15625 -20.53125 1.507812 -20.472656 1.3125 -20.359375 C 1.113281 -20.253906 0.960938 -20.15625 0.859375 -20.0625 L 0.796875 -20.078125 L 0.796875 -24.84375 L 0.859375 -24.890625 C 1.265625 -24.753906 2.363281 -24.6875 4.15625 -24.6875 L 15.796875 -24.6875 C 16.890625 -24.6875 17.535156 -24.738281 17.734375 -24.84375 C 17.929688 -24.957031 18.082031 -25.0625 18.1875 -25.15625 L 18.25 -25.140625 L 18.25 -20.375 L 18.1875 -20.328125 C 17.78125 -20.460938 16.679688 -20.53125 14.890625 -20.53125 L 12.109375 -20.53125 Z M 12.109375 0.109375 "/></g></g></g><g fill="#000000" fill-opacity="1"><g transform="translate(264.192294, 289.703357)"><g><path d="M 5.21875 -2.921875 C 4.09375 -4.003906 3.203125 -5.300781 2.546875 -6.8125 C 1.898438 -8.320312 1.578125 -9.976562 1.578125 -11.78125 C 1.578125 -13.582031 1.878906 -15.285156 2.484375 -16.890625 C 3.085938 -18.503906 3.953125 -19.921875 5.078125 -21.140625 C 6.210938 -22.367188 7.578125 -23.34375 9.171875 -24.0625 C 10.765625 -24.789062 12.550781 -25.15625 14.53125 -25.15625 C 17.945312 -25.15625 20.828125 -24.078125 23.171875 -21.921875 C 25.671875 -19.617188 26.921875 -16.515625 26.921875 -12.609375 C 26.921875 -8.816406 25.628906 -5.664062 23.046875 -3.15625 C 21.460938 -1.601562 19.578125 -0.539062 17.390625 0.03125 C 16.316406 0.320312 15.054688 0.46875 13.609375 0.46875 C 12.171875 0.46875 10.691406 0.171875 9.171875 -0.421875 C 7.660156 -1.015625 6.34375 -1.847656 5.21875 -2.921875 Z M 6.734375 -12.03125 C 6.734375 -10.875 6.925781 -9.8125 7.3125 -8.84375 C 7.695312 -7.882812 8.226562 -7.054688 8.90625 -6.359375 C 10.351562 -4.898438 12.21875 -4.171875 14.5 -4.171875 C 16.664062 -4.171875 18.40625 -4.875 19.71875 -6.28125 C 21.050781 -7.726562 21.71875 -9.703125 21.71875 -12.203125 C 21.71875 -14.546875 21.082031 -16.503906 19.8125 -18.078125 C 18.4375 -19.765625 16.550781 -20.609375 14.15625 -20.609375 C 11.84375 -20.609375 10.007812 -19.753906 8.65625 -18.046875 C 7.375 -16.441406 6.734375 -14.4375 6.734375 -12.03125 Z M 6.734375 -12.03125 "/></g></g></g><g fill="#000000" fill-opacity="1"><g transform="translate(296.0694, 289.703357)"><g><path d="M 3.359375 0 C 3.429688 -0.414062 3.46875 -0.875 3.46875 -1.375 L 3.46875 -24.6875 L 7.1875 -24.6875 L 17.015625 -9.203125 L 17.015625 -23.421875 C 17.015625 -24.109375 16.957031 -24.53125 16.84375 -24.6875 L 21.84375 -24.6875 C 21.78125 -24.195312 21.75 -23.648438 21.75 -23.046875 L 21.75 0 L 17.890625 0 L 8.203125 -14.875 L 8.203125 0 Z M 3.359375 0 "/></g></g></g><g fill="#000000" fill-opacity="1"><g transform="translate(324.679589, 289.703357)"><g><path d="M 8.375 0 C 8.53125 -0.476562 8.609375 -1.601562 8.609375 -3.375 L 8.609375 -8.53125 C 6.472656 -13.25 5.109375 -16.191406 4.515625 -17.359375 C 3.921875 -18.535156 3.414062 -19.460938 3 -20.140625 C 1.71875 -22.316406 0.941406 -23.566406 0.671875 -23.890625 C 0.410156 -24.210938 0.144531 -24.476562 -0.125 -24.6875 L 6.28125 -24.6875 C 6.414062 -24.4375 6.597656 -24.070312 6.828125 -23.59375 L 11.328125 -14.109375 C 11.535156 -14.628906 11.78125 -15.210938 12.0625 -15.859375 C 14.757812 -21.660156 16.128906 -24.601562 16.171875 -24.6875 L 22.296875 -24.6875 C 21.660156 -24.175781 20.882812 -23.113281 19.96875 -21.5 C 19.6875 -21.007812 19.40625 -20.457031 19.125 -19.84375 L 14.921875 -11.09375 C 14.453125 -10.039062 14.050781 -9.097656 13.71875 -8.265625 L 13.71875 -2.9375 C 13.71875 -1.695312 13.789062 -0.71875 13.9375 0 Z M 8.375 0 "/></g></g></g></svg>